<svg width="45" height="45" viewBox="0 0 45 45" fill="none" xmlns="http://www.w3.org/2000/svg">
<path d="M22.5 31.2909C22.6778 31.2909 22.8503 31.2639 23.0175 31.2098C23.1844 31.1558 23.3376 31.0626 23.4773 30.9305C24.2367 30.2405 24.9554 29.5661 25.6336 28.9073C26.3114 28.2489 26.9081 27.6059 27.4237 26.9784C27.9394 26.3509 28.3522 25.735 28.6622 25.1306C28.9722 24.5259 29.1272 23.9447 29.1272 23.3869C29.1272 22.3484 28.7726 21.4844 28.0636 20.7947C27.3545 20.1047 26.5 19.7597 25.5 19.7597C24.8797 19.7597 24.3178 19.8876 23.8144 20.1436C23.3106 20.3995 22.8725 20.7211 22.5 21.1083C22.1756 20.7211 21.7519 20.3995 21.2287 20.1436C20.7059 19.8876 20.1537 19.7597 19.5722 19.7597C18.5722 19.7597 17.7176 20.1047 17.0086 20.7947C16.2992 21.4844 15.9445 22.3484 15.9445 23.3869C15.9445 23.9447 16.0936 24.5259 16.3917 25.1306C16.6898 25.735 17.0967 26.3509 17.6123 26.9784C18.1279 27.6059 18.7247 28.2489 19.4025 28.9073C20.0806 29.5661 20.7873 30.2405 21.5226 30.9305C21.6623 31.0626 21.8156 31.1558 21.9825 31.2098C22.1497 31.2639 22.3222 31.2909 22.5 31.2909ZM12.404 37.5C11.565 37.5 10.8503 37.205 10.26 36.615C9.66998 36.0247 9.37498 35.31 9.37498 34.4709V20.3545L6.49029 22.6008C6.26904 22.7692 6.04076 22.8342 5.80545 22.7958C5.56982 22.7573 5.36779 22.6275 5.19935 22.4062C5.03123 22.185 4.96217 21.9565 4.99217 21.7209C5.02217 21.4856 5.1442 21.2837 5.35826 21.1153L20.6358 9.37874C20.9073 9.17686 21.2025 9.0253 21.5212 8.92405C21.8397 8.82311 22.1659 8.77264 22.5 8.77264C22.834 8.77264 23.1544 8.82311 23.4609 8.92405C23.7675 9.0253 24.0565 9.17686 24.3281 9.37874L39.6525 21.1153C39.8665 21.2837 39.9869 21.4856 40.0134 21.7209C40.0397 21.9565 39.9687 22.185 39.8006 22.4062C39.6322 22.6203 39.4301 22.7465 39.1945 22.785C38.9592 22.8234 38.7345 22.7584 38.5205 22.59L35.625 20.3545V34.4709C35.625 35.31 35.33 36.0247 34.74 36.615C34.1497 37.205 33.435 37.5 32.5959 37.5H12.404ZM12.404 35.625H32.5959C32.9325 35.625 33.209 35.5169 33.4256 35.3006C33.6419 35.084 33.75 34.8075 33.75 34.4709V18.9375L23.1853 10.9003C22.9928 10.7319 22.7644 10.6476 22.5 10.6476C22.2356 10.6476 22.0072 10.7319 21.8147 10.9003L11.25 18.9375V34.4709C11.25 34.8075 11.3581 35.084 11.5744 35.3006C11.7909 35.5169 12.0675 35.625 12.404 35.625ZM12.404 35.625H11.25H33.75H12.404Z" fill="#098C70"/>
</svg>
