<svg width="45" height="45" viewBox="0 0 45 45" fill="none" xmlns="http://www.w3.org/2000/svg">
<path d="M29.6573 36.9806L26.1056 33.3928C25.9303 33.2103 25.8427 32.9934 25.8427 32.7422C25.8427 32.4909 25.9339 32.2741 26.1164 32.0916C26.2992 31.9088 26.5183 31.8173 26.7736 31.8173C27.0289 31.8173 27.2522 31.9088 27.4434 32.0916L30.7645 35.4122L38.0588 28.1072C38.2416 27.9244 38.4586 27.833 38.7098 27.833C38.9611 27.833 39.178 27.9244 39.3605 28.1072C39.5433 28.2897 39.6347 28.5066 39.6347 28.7578C39.6347 29.0091 39.5433 29.2259 39.3605 29.4084L31.8244 36.9806C31.52 37.2837 31.1584 37.4353 30.7397 37.4353C30.3209 37.4353 29.9602 37.2837 29.6573 36.9806ZM24.6633 39.375C21.8292 39.375 19.432 38.3702 17.4717 36.3605C15.5114 34.3508 14.5313 31.9181 14.5313 29.0625V28.0927C12.1562 27.8714 10.1563 26.872 8.53125 25.0945C6.90625 23.3167 6.09375 21.2019 6.09375 18.75V9.95203C6.09375 9.52297 6.23891 9.16328 6.52922 8.87297C6.81953 8.58266 7.17922 8.4375 7.60828 8.4375H11.7188V7.5C11.7188 7.23438 11.8088 7.01172 11.9887 6.83203C12.1687 6.65234 12.3917 6.5625 12.6577 6.5625C12.9236 6.5625 13.1461 6.65234 13.3252 6.83203C13.5042 7.01172 13.5938 7.23438 13.5938 7.5V11.25C13.5938 11.5156 13.5037 11.7383 13.3238 11.918C13.1437 12.0977 12.9208 12.1875 12.6548 12.1875C12.3889 12.1875 12.1664 12.0977 11.9873 11.918C11.8083 11.7383 11.7188 11.5156 11.7188 11.25V10.3125H7.96875V18.75C7.96875 20.8125 8.70312 22.5781 10.1719 24.0469C11.6406 25.5156 13.4063 26.25 15.4688 26.25C17.5313 26.25 19.2969 25.5156 20.7656 24.0469C22.2344 22.5781 22.9688 20.8125 22.9688 18.75V10.3125H19.2188V11.25C19.2188 11.5156 19.1288 11.7383 18.9488 11.918C18.7688 12.0977 18.5458 12.1875 18.2798 12.1875C18.0139 12.1875 17.7914 12.0977 17.6123 11.918C17.4333 11.7383 17.3438 11.5156 17.3438 11.25V7.5C17.3438 7.23438 17.4338 7.01172 17.6138 6.83203C17.7938 6.65234 18.0167 6.5625 18.2827 6.5625C18.5486 6.5625 18.7711 6.65234 18.9502 6.83203C19.1292 7.01172 19.2188 7.23438 19.2188 7.5V8.4375H23.3292C23.7583 8.4375 24.118 8.58266 24.4083 8.87297C24.6986 9.16328 24.8438 9.52297 24.8438 9.95203V18.75C24.8438 21.2019 24.0312 23.3167 22.4062 25.0945C20.7812 26.872 18.7813 27.8714 16.4063 28.0927V29.0625C16.4063 31.3847 17.2073 33.3714 18.8095 35.0227C20.4117 36.6742 22.363 37.5 24.6633 37.5C24.9289 37.5 25.1516 37.59 25.3313 37.77C25.5109 37.95 25.6008 38.173 25.6008 38.4389C25.6008 38.7048 25.5109 38.9273 25.3313 39.1064C25.1516 39.2855 24.9289 39.375 24.6633 39.375Z" fill="#098C70"/>
</svg>
