<svg width="45" height="45" viewBox="0 0 45 45" fill="none" xmlns="http://www.w3.org/2000/svg">
<path d="M27.78 35.625C24.1116 35.625 21.0044 34.352 18.4584 31.8061C15.9125 29.2602 14.6395 26.153 14.6395 22.4845C14.6395 18.8433 15.9125 15.7481 18.4584 13.1991C21.0044 10.6497 24.1116 9.375 27.78 9.375C31.4209 9.375 34.5161 10.6497 37.0655 13.1991C39.6148 15.7481 40.8895 18.8433 40.8895 22.4845C40.8895 26.153 39.6148 29.2602 37.0655 31.8061C34.5161 34.352 31.4209 35.625 27.78 35.625ZM27.7645 33.75C30.8895 33.75 33.5458 32.6563 35.7333 30.4688C37.9208 28.2813 39.0145 25.625 39.0145 22.5C39.0145 19.375 37.9208 16.7188 35.7333 14.5313C33.5458 12.3438 30.8895 11.25 27.7645 11.25C24.6395 11.25 21.9833 12.3438 19.7958 14.5313C17.6083 16.7188 16.5145 19.375 16.5145 22.5C16.5145 25.625 17.6083 28.2813 19.7958 30.4688C21.9833 32.6563 24.6395 33.75 27.7645 33.75ZM28.702 22.1466V16.5145C28.702 16.2489 28.612 16.0263 28.432 15.8466C28.252 15.6669 28.0291 15.577 27.7631 15.577C27.4972 15.577 27.2747 15.6669 27.0956 15.8466C26.9166 16.0263 26.827 16.2489 26.827 16.5145V22.2947C26.827 22.4859 26.8636 22.6714 26.9367 22.8511C27.0102 23.0305 27.1281 23.202 27.2906 23.3658L31.7273 27.8367C31.9098 28.0433 32.1267 28.1466 32.378 28.1466C32.6292 28.1466 32.8581 28.0433 33.0647 27.8367C33.2716 27.6298 33.375 27.4069 33.375 27.1678C33.375 26.9284 33.2716 26.7055 33.0647 26.4989L28.702 22.1466ZM6.92297 15.9375C6.65735 15.9375 6.43469 15.8475 6.255 15.6675C6.07532 15.4875 5.98547 15.2645 5.98547 14.9986C5.98547 14.7327 6.07532 14.5102 6.255 14.3311C6.43469 14.152 6.65735 14.0625 6.92297 14.0625H11.827C12.0927 14.0625 12.3153 14.1525 12.495 14.3325C12.6747 14.5125 12.7645 14.7355 12.7645 15.0014C12.7645 15.2673 12.6747 15.4898 12.495 15.6689C12.3153 15.848 12.0927 15.9375 11.827 15.9375H6.92297ZM5.04797 23.4375C4.78235 23.4375 4.55969 23.3475 4.38 23.1675C4.20032 22.9875 4.11047 22.7645 4.11047 22.4986C4.11047 22.2327 4.20032 22.0102 4.38 21.8311C4.55969 21.652 4.78235 21.5625 5.04797 21.5625H11.827C12.0927 21.5625 12.3153 21.6525 12.495 21.8325C12.6747 22.0125 12.7645 22.2355 12.7645 22.5014C12.7645 22.7673 12.6747 22.9898 12.495 23.1689C12.3153 23.348 12.0927 23.4375 11.827 23.4375H5.04797ZM6.92297 30.9375C6.65735 30.9375 6.43469 30.8475 6.255 30.6675C6.07532 30.4875 5.98547 30.2645 5.98547 29.9986C5.98547 29.7327 6.07532 29.5102 6.255 29.3311C6.43469 29.152 6.65735 29.0625 6.92297 29.0625H11.827C12.0927 29.0625 12.3153 29.1525 12.495 29.3325C12.6747 29.5125 12.7645 29.7355 12.7645 30.0014C12.7645 30.2673 12.6747 30.4898 12.495 30.6689C12.3153 30.848 12.0927 30.9375 11.827 30.9375H6.92297Z" fill="#098C70"/>
</svg>
