<svg width="46" height="45" viewBox="0 0 46 45" fill="none" xmlns="http://www.w3.org/2000/svg">
<path d="M21.0834 23.4376V27.1515C21.0834 27.4274 21.1787 27.6587 21.3694 27.8452C21.5601 28.0318 21.7965 28.1251 22.0786 28.1251H23.9215C24.2189 28.1251 24.4591 28.0318 24.6421 27.8452C24.8252 27.6587 24.9167 27.4274 24.9167 27.1515V23.4376H28.7131C29.0105 23.4376 29.2508 23.3443 29.4338 23.1577C29.6169 22.9712 29.7084 22.7399 29.7084 22.464V20.6612C29.7084 20.3702 29.6169 20.1352 29.4338 19.9562C29.2508 19.7771 29.0105 19.6876 28.7131 19.6876H24.9167V15.9737C24.9167 15.6827 24.8252 15.4477 24.6421 15.2687C24.4591 15.0896 24.2189 15.0001 23.9215 15.0001H22.0786C21.7965 15.0001 21.5601 15.0896 21.3694 15.2687C21.1787 15.4477 21.0834 15.6827 21.0834 15.9737V19.6876H17.2869C17.0049 19.6876 16.7685 19.7771 16.5778 19.9562C16.3871 20.1352 16.2917 20.3702 16.2917 20.6612V22.464C16.2917 22.7399 16.3871 22.9712 16.5778 23.1577C16.7685 23.3443 17.0049 23.4376 17.2869 23.4376H21.0834ZM23 39.0793C22.8256 39.0793 22.6426 39.0637 22.4509 39.0324C22.2593 39.0012 22.0796 38.9543 21.9119 38.8918C18.1405 37.4855 15.143 35.1004 12.9193 31.7363C10.6954 28.372 9.58337 24.7307 9.58337 20.8126V12.7824C9.58337 12.1393 9.77041 11.5604 10.1445 11.0457C10.5185 10.5313 11.0023 10.1584 11.5959 9.9268L21.9162 6.1768C22.2899 6.04461 22.6512 5.97852 23 5.97852C23.3489 5.97852 23.7102 6.04461 24.0839 6.1768L34.4042 9.9268C34.9977 10.1584 35.4815 10.5313 35.8556 11.0457C36.2297 11.5604 36.4167 12.1393 36.4167 12.7824V20.8126C36.4167 24.7307 35.3047 28.372 33.0808 31.7363C30.8571 35.1004 27.8596 37.4855 24.0882 38.8918C23.9205 38.9543 23.7408 39.0012 23.5492 39.0324C23.3575 39.0637 23.1745 39.0793 23 39.0793ZM23 37.3126C26.3223 36.2813 29.0695 34.2188 31.2417 31.1251C33.4139 28.0313 34.5 24.5938 34.5 20.8126V12.7463C34.5 12.506 34.4325 12.2898 34.2974 12.0976C34.1622 11.9051 33.9718 11.7609 33.7262 11.6649L23.4054 7.91492C23.2827 7.8668 23.1476 7.84274 23 7.84274C22.8525 7.84274 22.7173 7.8668 22.5947 7.91492L12.2739 11.6649C12.0282 11.7609 11.8379 11.9051 11.7027 12.0976C11.5676 12.2898 11.5 12.506 11.5 12.7463V20.8126C11.5 24.5938 12.5862 28.0313 14.7584 31.1251C16.9306 34.2188 19.6778 36.2813 23 37.3126Z" fill="#098C70"/>
</svg>
