<svg width="45" height="45" viewBox="0 0 45 45" fill="none" xmlns="http://www.w3.org/2000/svg">
<path d="M22.5 35.625C21.1322 35.625 19.8138 35.3961 18.5447 34.9383C17.2754 34.4802 16.1058 33.8244 15.0361 32.971V35.9855C15.0361 36.4208 14.8925 36.7821 14.6054 37.0693C14.3179 37.3564 13.9566 37.5 13.5216 37.5H5.30066C4.86535 37.5 4.5041 37.3564 4.21691 37.0693C3.92973 36.7821 3.78613 36.4208 3.78613 35.9855V30.9375C3.78613 30.1875 4.03316 29.5433 4.52723 29.0049C5.02098 28.4664 5.62723 28.1732 6.34598 28.125H11.7657C12.2704 28.125 12.7499 28.2452 13.2043 28.4855C13.6586 28.7258 14.0336 29.0757 14.3293 29.535C15.2836 30.8738 16.473 31.911 17.8974 32.6466C19.3214 33.3822 20.8557 33.75 22.5 33.75C24.1516 33.75 25.6955 33.3822 27.1318 32.6466C28.568 31.911 29.7597 30.8738 30.7069 29.535C31.0169 29.0757 31.3972 28.7258 31.8479 28.4855C32.2988 28.2452 32.761 28.125 33.2344 28.125H38.6541C39.38 28.1732 39.9941 28.4664 40.4963 29.0049C40.9988 29.5433 41.25 30.1875 41.25 30.9375V35.9855C41.25 36.4208 41.1064 36.7821 40.8193 37.0693C40.5321 37.3564 40.1708 37.5 39.7355 37.5H31.5146C31.0793 37.5 30.718 37.3564 30.4308 37.0693C30.1436 36.7821 30 36.4208 30 35.9855V32.9461C28.9544 33.7993 27.7927 34.4591 26.5149 34.9257C25.2374 35.3919 23.8991 35.625 22.5 35.625ZM8.58191 24.8077C7.30785 24.8077 6.20801 24.345 5.28238 23.4197C4.35707 22.4941 3.89441 21.3943 3.89441 20.1202C3.89441 18.8149 4.35707 17.7074 5.28238 16.7977C6.20801 15.8877 7.30785 15.4327 8.58191 15.4327C9.88723 15.4327 10.9947 15.8877 11.9044 16.7977C12.8144 17.7074 13.2694 18.8149 13.2694 20.1202C13.2694 21.3943 12.8144 22.4941 11.9044 23.4197C10.9947 24.345 9.88723 24.8077 8.58191 24.8077ZM36.4182 24.8077C35.1441 24.8077 34.0444 24.345 33.1191 23.4197C32.1935 22.4941 31.7307 21.3943 31.7307 20.1202C31.7307 18.8149 32.1935 17.7074 33.1191 16.7977C34.0444 15.8877 35.1441 15.4327 36.4182 15.4327C37.7235 15.4327 38.8311 15.8877 39.7411 16.7977C40.6508 17.7074 41.1057 18.8149 41.1057 20.1202C41.1057 21.3943 40.6508 22.4941 39.7411 23.4197C38.8311 24.345 37.7235 24.8077 36.4182 24.8077ZM22.5 8.06957C23.166 7.29332 23.8811 6.69785 24.6455 6.28316C25.4099 5.86847 26.1935 5.66113 26.9963 5.66113C28.2057 5.66113 29.231 6.09379 30.0722 6.9591C30.9135 7.82441 31.3341 8.88207 31.3341 10.1321C31.3341 11.6827 30.673 13.178 29.3508 14.618C28.0289 16.0577 26.231 17.7296 23.9569 19.6336C23.5288 19.9821 23.045 20.1563 22.5057 20.1563C21.966 20.1563 21.4785 19.9821 21.0432 19.6336C18.7691 17.7055 16.9711 16.0216 15.6493 14.5819C14.3271 13.1419 13.666 11.6227 13.666 10.0243C13.666 8.82207 14.0927 7.79441 14.9461 6.94129C15.7993 6.08785 16.8305 5.66113 18.0399 5.66113C18.8668 5.66113 19.6504 5.86238 20.3907 6.26488C21.131 6.6677 21.8341 7.26926 22.5 8.06957ZM22.5 18.3389C24.8944 16.4449 26.6529 14.8374 27.7754 13.5164C28.8979 12.1955 29.4591 11.0554 29.4591 10.096C29.4591 9.37254 29.2175 8.76504 28.7344 8.27348C28.2513 7.78191 27.6599 7.53613 26.9602 7.53613C26.3208 7.53613 25.7614 7.7416 25.2821 8.15254C24.8024 8.56379 24.3269 9.01222 23.8557 9.49785L22.5108 10.9289L21.166 9.51941C20.6804 9.01941 20.1977 8.56379 19.718 8.15254C19.2386 7.7416 18.6793 7.53613 18.0399 7.53613C17.3402 7.53613 16.7488 7.77598 16.2657 8.25566C15.7825 8.73504 15.541 9.32457 15.541 10.0243C15.541 11.0314 16.0963 12.1894 17.2069 13.4982C18.3175 14.8072 20.0819 16.4208 22.5 18.3389Z" fill="#098C70"/>
</svg>
