<svg width="46" height="45" viewBox="0 0 46 45" fill="none" xmlns="http://www.w3.org/2000/svg">
<path d="M23 31.4721C23.1818 31.4721 23.3581 31.4444 23.529 31.3892C23.6996 31.3339 23.8563 31.2387 23.9991 31.1036C24.7753 30.3982 25.5101 29.7089 26.2033 29.0355C26.8961 28.3624 27.5061 27.7052 28.0332 27.0637C28.5603 26.4223 28.9823 25.7927 29.2992 25.1749C29.616 24.5567 29.7745 23.9626 29.7745 23.3924C29.7745 22.3308 29.4121 21.4476 28.6873 20.7426C27.9624 20.0372 27.0889 19.6846 26.0667 19.6846C25.4326 19.6846 24.8582 19.8154 24.3436 20.077C23.8287 20.3386 23.3808 20.6673 23 21.0631C22.6684 20.6673 22.2353 20.3386 21.7005 20.077C21.1661 19.8154 20.6016 19.6846 20.0072 19.6846C18.9849 19.6846 18.1114 20.0372 17.3866 20.7426C16.6615 21.4476 16.2989 22.3308 16.2989 23.3924C16.2989 23.9626 16.4513 24.5567 16.756 25.1749C17.0608 25.7927 17.4767 26.4223 18.0038 27.0637C18.5308 27.7052 19.1408 28.3624 19.8337 29.0355C20.5269 29.7089 21.2493 30.3982 22.001 31.1036C22.1438 31.2387 22.3004 31.3339 22.471 31.3892C22.6419 31.4444 22.8183 31.4721 23 31.4721ZM12.6797 37.8191C11.822 37.8191 11.0915 37.5175 10.488 36.9144C9.88492 36.311 9.58337 35.5804 9.58337 34.7227V20.2926L6.63457 22.5888C6.40841 22.761 6.17505 22.8274 5.93451 22.7881C5.69365 22.7488 5.48713 22.6161 5.31495 22.3899C5.14309 22.1638 5.07249 21.9303 5.10316 21.6894C5.13382 21.4488 5.25857 21.2425 5.47739 21.0703L21.0944 9.07293C21.372 8.86657 21.6737 8.71164 21.9995 8.60814C22.325 8.50496 22.6585 8.45337 23 8.45337C23.3415 8.45337 23.6689 8.50496 23.9823 8.60814C24.2957 8.71164 24.5912 8.86657 24.8688 9.07293L40.5337 21.0703C40.7525 21.2425 40.8755 21.4488 40.9027 21.6894C40.9295 21.9303 40.857 22.1638 40.6851 22.3899C40.5129 22.6088 40.3064 22.7378 40.0656 22.7771C39.825 22.8164 39.5953 22.7499 39.3765 22.5778L36.4167 20.2926V34.7227C36.4167 35.5804 36.1151 36.311 35.512 36.9144C34.9086 37.5175 34.178 37.8191 33.3203 37.8191H12.6797ZM12.6797 35.9024H33.3203C33.6644 35.9024 33.9471 35.7919 34.1685 35.5709C34.3895 35.3495 34.5 35.0668 34.5 34.7227V18.8441L23.7006 10.6283C23.5038 10.4561 23.2703 10.37 23 10.37C22.7298 10.37 22.4963 10.4561 22.2995 10.6283L11.5 18.8441V34.7227C11.5 35.0668 11.6106 35.3495 11.8316 35.5709C12.053 35.7919 12.3357 35.9024 12.6797 35.9024ZM12.6797 35.9024H11.5H34.5H12.6797Z" fill="#098C70"/>
</svg>
