<svg width="45" height="45" viewBox="0 0 45 45" fill="none" xmlns="http://www.w3.org/2000/svg">
<path d="M21.5625 39.3749V36.1297C21.5625 35.8629 21.652 35.6399 21.8311 35.4608C22.0102 35.2818 22.2331 35.1922 22.5 35.1922C22.7669 35.1922 22.9898 35.2818 23.1689 35.4608C23.348 35.6399 23.4375 35.8629 23.4375 36.1297V39.3749C23.4375 39.6418 23.348 39.8647 23.1689 40.0438C22.9898 40.2229 22.7669 40.3124 22.5 40.3124C22.2331 40.3124 22.0102 40.2229 21.8311 40.0438C21.652 39.8647 21.5625 39.6418 21.5625 39.3749ZM5.625 21.5624H8.87016C9.13703 21.5624 9.36 21.6519 9.53906 21.831C9.71813 22.01 9.80766 22.233 9.80766 22.4999C9.80766 22.7668 9.71813 22.9897 9.53906 23.1688C9.36 23.3479 9.13703 23.4374 8.87016 23.4374H5.625C5.35813 23.4374 5.13516 23.3479 4.95609 23.1688C4.77703 22.9897 4.6875 22.7668 4.6875 22.4999C4.6875 22.233 4.77703 22.01 4.95609 21.831C5.13516 21.6519 5.35813 21.5624 5.625 21.5624ZM36.1298 21.5624H39.375C39.6419 21.5624 39.8648 21.6519 40.0439 21.831C40.223 22.01 40.3125 22.233 40.3125 22.4999C40.3125 22.7668 40.223 22.9897 40.0439 23.1688C39.8648 23.3479 39.6419 23.4374 39.375 23.4374H36.1298C35.863 23.4374 35.64 23.3479 35.4609 23.1688C35.2819 22.9897 35.1923 22.7668 35.1923 22.4999C35.1923 22.233 35.2819 22.01 35.4609 21.831C35.64 21.6519 35.863 21.5624 36.1298 21.5624ZM33.1584 35.4229L30.9084 33.1729C30.7331 32.9975 30.6394 32.7824 30.6272 32.5274C30.6153 32.2727 30.7091 32.0455 30.9084 31.8458C31.1081 31.6464 31.3294 31.5468 31.5722 31.5468C31.815 31.5468 32.0361 31.6464 32.2355 31.8458L34.4855 34.0958C34.6611 34.2714 34.7548 34.4866 34.7667 34.7413C34.7789 34.9963 34.6852 35.2235 34.4855 35.4229C34.2861 35.6225 34.065 35.7224 33.8222 35.7224C33.5794 35.7224 33.3581 35.6225 33.1584 35.4229ZM10.5145 34.0958L12.7645 31.8458C12.9398 31.6705 13.155 31.5768 13.41 31.5646C13.6647 31.5527 13.8919 31.6464 14.0916 31.8458C14.2909 32.0455 14.3906 32.2668 14.3906 32.5096C14.3906 32.7524 14.2909 32.9735 14.0916 33.1729L11.8416 35.4229C11.6659 35.5985 11.4508 35.6922 11.1961 35.7041C10.9411 35.7163 10.7139 35.6225 10.5145 35.4229C10.3148 35.2235 10.215 35.0024 10.215 34.7596C10.215 34.5168 10.3148 34.2955 10.5145 34.0958ZM22.5 29.9999C20.4109 29.9999 18.6387 29.2721 17.1834 27.8164C15.7278 26.3611 15 24.5889 15 22.4999C15 21.1443 15.3359 19.8961 16.0078 18.7555C16.6797 17.6149 17.5938 16.6996 18.75 16.0096V10.745C18.75 10.1947 18.9369 9.73254 19.3106 9.35848C19.6844 8.98473 20.1466 8.79785 20.6972 8.79785H24.3028C24.8534 8.79785 25.3156 8.98473 25.6894 9.35848C26.0631 9.73254 26.25 10.1947 26.25 10.745V16.0096C27.4062 16.6996 28.3203 17.6149 28.9922 18.7555C29.6641 19.8961 30 21.1443 30 22.4999C30 24.5889 29.2722 26.3611 27.8166 27.8164C26.3612 29.2721 24.5891 29.9999 22.5 29.9999ZM20.625 15.2596C20.9375 15.173 21.2441 15.108 21.5447 15.0646C21.845 15.0214 22.1634 14.9999 22.5 14.9999C22.8366 14.9999 23.155 15.0214 23.4553 15.0646C23.7559 15.108 24.0625 15.173 24.375 15.2596V10.6729H20.625V15.2596ZM22.5 28.1249C24.0625 28.1249 25.3906 27.578 26.4844 26.4843C27.5781 25.3905 28.125 24.0624 28.125 22.4999C28.125 20.9374 27.5781 19.6093 26.4844 18.5155C25.3906 17.4218 24.0625 16.8749 22.5 16.8749C20.9375 16.8749 19.6094 17.4218 18.5156 18.5155C17.4219 19.6093 16.875 20.9374 16.875 22.4999C16.875 24.0624 17.4219 25.3905 18.5156 26.4843C19.6094 27.578 20.9375 28.1249 22.5 28.1249Z" fill="#098C70"/>
</svg>
