<svg xmlns="http://www.w3.org/2000/svg" width="45" height="45" viewBox="0 0 45 45" fill="none">
  <path d="M27.7799 35.625C24.1114 35.625 21.0043 34.352 18.4583 31.8061C15.9124 29.2602 14.6394 26.153 14.6394 22.4845C14.6394 18.8433 15.9124 15.7481 18.4583 13.1991C21.0043 10.6497 24.1114 9.375 27.7799 9.375C31.4208 9.375 34.516 10.6497 37.0653 13.1991C39.6147 15.7481 40.8894 18.8433 40.8894 22.4845C40.8894 26.153 39.6147 29.2602 37.0653 31.8061C34.516 34.352 31.4208 35.625 27.7799 35.625ZM27.7644 33.75C30.8894 33.75 33.5457 32.6563 35.7332 30.4688C37.9207 28.2813 39.0144 25.625 39.0144 22.5C39.0144 19.375 37.9207 16.7188 35.7332 14.5313C33.5457 12.3438 30.8894 11.25 27.7644 11.25C24.6394 11.25 21.9832 12.3438 19.7957 14.5313C17.6082 16.7188 16.5144 19.375 16.5144 22.5C16.5144 25.625 17.6082 28.2813 19.7957 30.4688C21.9832 32.6563 24.6394 33.75 27.7644 33.75ZM28.7019 22.1466V16.5145C28.7019 16.2489 28.6119 16.0263 28.4319 15.8466C28.2519 15.6669 28.0289 15.577 27.763 15.577C27.4971 15.577 27.2746 15.6669 27.0955 15.8466C26.9164 16.0263 26.8269 16.2489 26.8269 16.5145V22.2947C26.8269 22.4859 26.8635 22.6714 26.9366 22.8511C27.01 23.0305 27.128 23.202 27.2905 23.3658L31.7272 27.8367C31.9097 28.0433 32.1266 28.1466 32.3778 28.1466C32.6291 28.1466 32.858 28.0433 33.0646 27.8367C33.2714 27.6298 33.3749 27.4069 33.3749 27.1678C33.3749 26.9284 33.2714 26.7055 33.0646 26.4989L28.7019 22.1466ZM6.92285 15.9375C6.65723 15.9375 6.43457 15.8475 6.25488 15.6675C6.0752 15.4875 5.98535 15.2645 5.98535 14.9986C5.98535 14.7327 6.0752 14.5102 6.25488 14.3311C6.43457 14.152 6.65723 14.0625 6.92285 14.0625H11.8269C12.0925 14.0625 12.3152 14.1525 12.4949 14.3325C12.6746 14.5125 12.7644 14.7355 12.7644 15.0014C12.7644 15.2673 12.6746 15.4898 12.4949 15.6689C12.3152 15.848 12.0925 15.9375 11.8269 15.9375H6.92285ZM5.04785 23.4375C4.78223 23.4375 4.55957 23.3475 4.37988 23.1675C4.2002 22.9875 4.11035 22.7645 4.11035 22.4986C4.11035 22.2327 4.2002 22.0102 4.37988 21.8311C4.55957 21.652 4.78223 21.5625 5.04785 21.5625H11.8269C12.0925 21.5625 12.3152 21.6525 12.4949 21.8325C12.6746 22.0125 12.7644 22.2355 12.7644 22.5014C12.7644 22.7673 12.6746 22.9898 12.4949 23.1689C12.3152 23.348 12.0925 23.4375 11.8269 23.4375H5.04785ZM6.92285 30.9375C6.65723 30.9375 6.43457 30.8475 6.25488 30.6675C6.0752 30.4875 5.98535 30.2645 5.98535 29.9986C5.98535 29.7327 6.0752 29.5102 6.25488 29.3311C6.43457 29.152 6.65723 29.0625 6.92285 29.0625H11.8269C12.0925 29.0625 12.3152 29.1525 12.4949 29.3325C12.6746 29.5125 12.7644 29.7355 12.7644 30.0014C12.7644 30.2673 12.6746 30.4898 12.4949 30.6689C12.3152 30.848 12.0925 30.9375 11.8269 30.9375H6.92285Z" fill="#098C70"/>
</svg>