<svg xmlns="http://www.w3.org/2000/svg" width="45" height="45" viewBox="0 0 45 45" fill="none">
  <path d="M9.44578 36.2743C9.17984 36.2743 8.95734 36.1845 8.77828 36.0048C8.59922 35.8251 8.50969 35.6024 8.50969 35.3368V33.4618H7.5C6.44219 33.4618 5.55281 33.1012 4.83188 32.3799C4.11063 31.6587 3.75 30.7693 3.75 29.7118V20.3368C3.75 19.1346 4.14656 18.2091 4.93969 17.5604C5.73312 16.9113 6.58656 16.5868 7.5 16.5868V13.5577C7.5 12.4999 7.86063 11.6106 8.58188 10.8896C9.30281 10.1684 10.1922 9.80774 11.25 9.80774H33.75C34.8078 9.80774 35.6972 10.1684 36.4181 10.8896C37.1394 11.6106 37.5 12.4999 37.5 13.5577V16.5868C38.5097 16.5868 39.387 16.9293 40.132 17.6143C40.8773 18.2993 41.25 19.2068 41.25 20.3368V29.7118C41.25 30.7693 40.8894 31.6587 40.1681 32.3799C39.4472 33.1012 38.5578 33.4618 37.5 33.4618H36.4903V35.3368C36.4903 35.6024 36.4128 35.8251 36.2578 36.0048C36.1028 36.1845 35.8923 36.2743 35.6264 36.2743C35.3605 36.2743 35.1375 36.1845 34.9575 36.0048C34.7775 35.8251 34.6875 35.6024 34.6875 35.3368V33.4618H10.3847V35.3368C10.3847 35.6034 10.2947 35.8263 10.1147 36.0057C9.93469 36.1848 9.71172 36.2743 9.44578 36.2743ZM7.5 31.5868H37.5C38.0312 31.5868 38.4766 31.4071 38.8359 31.0477C39.1953 30.6884 39.375 30.2431 39.375 29.7118V20.3368C39.375 19.8056 39.1953 19.3602 38.8359 19.0009C38.4766 18.6415 38.0312 18.4618 37.5 18.4618C36.9688 18.4618 36.5234 18.6415 36.1641 19.0009C35.8047 19.3602 35.625 19.8056 35.625 20.3368V26.8993H9.375V20.3368C9.375 19.8056 9.19531 19.3602 8.83594 19.0009C8.47656 18.6415 8.03125 18.4618 7.5 18.4618C6.96875 18.4618 6.52344 18.6415 6.16406 19.0009C5.80469 19.3602 5.625 19.8056 5.625 20.3368V29.7118C5.625 30.2431 5.80469 30.6884 6.16406 31.0477C6.52344 31.4071 6.96875 31.5868 7.5 31.5868ZM11.25 25.0243H33.75V20.3368C33.75 19.6612 33.9219 19.0398 34.2656 18.4726C34.6094 17.9051 35.0625 17.464 35.625 17.1493V13.5577C35.625 13.0265 35.4453 12.5812 35.0859 12.2218C34.7266 11.8624 34.2812 11.6827 33.75 11.6827H11.25C10.7188 11.6827 10.2734 11.8624 9.91406 12.2218C9.55469 12.5812 9.375 13.0265 9.375 13.5577V17.1493C9.9375 17.464 10.3906 17.9051 10.7344 18.4726C11.0781 19.0398 11.25 19.6612 11.25 20.3368V25.0243Z" fill="#098C70"/>
</svg>