<svg width="45" height="45" viewBox="0 0 45 45" fill="none" xmlns="http://www.w3.org/2000/svg">
<path d="M22.5 31.291C22.6778 31.291 22.8503 31.264 23.0175 31.2099C23.1844 31.1558 23.3376 31.0627 23.4773 30.9305C24.2367 30.2405 24.9554 29.5661 25.6336 28.9074C26.3114 28.249 26.9081 27.606 27.4237 26.9785C27.9394 26.351 28.3522 25.735 28.6622 25.1307C28.9722 24.526 29.1272 23.9447 29.1272 23.3869C29.1272 22.3485 28.7726 21.4844 28.0636 20.7947C27.3545 20.1047 26.5 19.7597 25.5 19.7597C24.8797 19.7597 24.3178 19.8877 23.8144 20.1436C23.3106 20.3996 22.8725 20.7211 22.5 21.1083C22.1756 20.7211 21.7519 20.3996 21.2287 20.1436C20.7059 19.8877 20.1537 19.7597 19.5722 19.7597C18.5722 19.7597 17.7176 20.1047 17.0086 20.7947C16.2992 21.4844 15.9445 22.3485 15.9445 23.3869C15.9445 23.9447 16.0936 24.526 16.3917 25.1307C16.6898 25.735 17.0967 26.351 17.6123 26.9785C18.1279 27.606 18.7247 28.249 19.4025 28.9074C20.0806 29.5661 20.7873 30.2405 21.5226 30.9305C21.6623 31.0627 21.8156 31.1558 21.9825 31.2099C22.1497 31.264 22.3222 31.291 22.5 31.291ZM12.404 37.5C11.565 37.5 10.8503 37.205 10.26 36.615C9.66998 36.0247 9.37498 35.31 9.37498 34.471V20.3546L6.49029 22.6008C6.26904 22.7693 6.04076 22.8343 5.80545 22.7958C5.56982 22.7574 5.36779 22.6275 5.19935 22.4063C5.03123 22.185 4.96217 21.9566 4.99217 21.721C5.02217 21.4857 5.1442 21.2838 5.35826 21.1154L20.6358 9.3788C20.9073 9.17692 21.2025 9.02536 21.5212 8.92411C21.8397 8.82317 22.1659 8.77271 22.5 8.77271C22.834 8.77271 23.1544 8.82317 23.4609 8.92411C23.7675 9.02536 24.0565 9.17692 24.3281 9.3788L39.6525 21.1154C39.8665 21.2838 39.9869 21.4857 40.0134 21.721C40.0397 21.9566 39.9687 22.185 39.8006 22.4063C39.6322 22.6204 39.4301 22.7466 39.1945 22.785C38.9592 22.8235 38.7345 22.7585 38.5205 22.59L35.625 20.3546V34.471C35.625 35.31 35.33 36.0247 34.74 36.615C34.1497 37.205 33.435 37.5 32.5959 37.5H12.404ZM12.404 35.625H32.5959C32.9325 35.625 33.209 35.5169 33.4256 35.3007C33.6419 35.0841 33.75 34.8075 33.75 34.471V18.9375L23.1853 10.9004C22.9928 10.7319 22.7644 10.6477 22.5 10.6477C22.2356 10.6477 22.0072 10.7319 21.8147 10.9004L11.25 18.9375V34.471C11.25 34.8075 11.3581 35.0841 11.5744 35.3007C11.7909 35.5169 12.0675 35.625 12.404 35.625ZM12.404 35.625H11.25H33.75H12.404Z" fill="#098C70"/>
</svg>
