<svg xmlns="http://www.w3.org/2000/svg" width="103" height="18" viewBox="0 0 103 18" fill="none">
<path d="M6.16123 17.3392C4.95882 17.3392 3.89079 17.0721 2.95761 16.5383C2.02419 16.0045 1.298 15.2615 0.778799 14.3095C0.2596 13.3575 0 12.2583 0 11.0116C0 9.74417 0.273927 8.62027 0.821531 7.63964C1.36938 6.65926 2.14102 5.89685 3.13669 5.35266C4.13235 4.80847 5.27054 4.53625 6.551 4.53625C7.53037 4.53625 8.42822 4.71156 9.24456 5.06219C10.0612 5.41257 10.8004 5.92965 11.4626 6.6134V0.437918L13.6679 0V17.0078H11.4626L11.6798 13.6945H11.6405C11.2441 14.8387 10.5611 15.732 9.59136 16.3748C8.62162 17.0176 7.47825 17.3392 6.16123 17.3392ZM6.84469 15.3856C7.7912 15.3856 8.611 15.2058 9.30409 14.8465C9.99718 14.4873 10.5302 13.9712 10.9032 13.2978C11.2762 12.6247 11.4626 11.8339 11.4626 10.926C11.4626 9.55874 11.0526 8.47776 10.2323 7.68255C9.41228 6.88759 8.28842 6.48986 6.86099 6.48986C5.90978 6.48986 5.08776 6.66962 4.39467 7.02888C3.70158 7.38814 3.17102 7.90176 2.80323 8.56997C2.43545 9.23819 2.25168 10.0262 2.25168 10.9341C2.25168 12.3172 2.66022 13.4048 3.47755 14.1971C4.29488 14.9893 5.41726 15.3856 6.84469 15.3856Z" fill="#171717"/>
<path d="M23.9659 17.3392C22.6398 17.3392 21.449 17.0682 20.3933 16.5265C19.3378 15.9847 18.5087 15.2275 17.9057 14.2545C17.303 13.2815 17.0017 12.1771 17.0017 10.9415C17.0017 9.7057 17.303 8.60277 17.9057 7.63249C18.5087 6.66222 19.3378 5.90351 20.3933 5.3566C21.449 4.8097 22.6398 4.53625 23.9659 4.53625C25.2817 4.53625 26.4661 4.8097 27.5188 5.3566C28.5715 5.90351 29.3968 6.66222 29.9945 7.63249C30.5923 8.60277 30.8911 9.7057 30.8911 10.9415C30.8911 12.1771 30.5923 13.2801 29.9945 14.2503C29.3968 15.2206 28.5715 15.9781 27.5188 16.5225C26.4661 17.067 25.2817 17.3392 23.9659 17.3392ZM23.9659 15.3856C24.9013 15.3856 25.7221 15.2006 26.4283 14.831C27.1345 14.4614 27.6821 13.9374 28.0711 13.2591C28.4601 12.5805 28.6548 11.8028 28.6548 10.926C28.6548 10.0489 28.4601 9.27395 28.0711 8.60055C27.6821 7.9274 27.1332 7.40712 26.4243 7.04022C25.7154 6.67332 24.8959 6.48986 23.9659 6.48986C23.0303 6.48986 22.2055 6.67332 21.4915 7.04022C20.7774 7.40712 20.2258 7.9274 19.8368 8.60055C19.4478 9.27395 19.2531 10.0489 19.2531 10.926C19.2531 11.8082 19.4478 12.5887 19.8368 13.2672C20.2258 13.9456 20.7774 14.4683 21.4915 14.8352C22.2055 15.2021 23.0303 15.3856 23.9659 15.3856Z" fill="#171717"/>
<path d="M40.437 17.3392C39.0953 17.3392 37.8941 17.0618 36.8333 16.507C35.7726 15.9522 34.9447 15.1883 34.3499 14.2153C33.7549 13.2423 33.4575 12.151 33.4575 10.9415C33.4575 9.70076 33.7549 8.59537 34.3499 7.6251C34.9447 6.65482 35.7803 5.89735 36.8565 5.35291C37.9327 4.80847 39.1729 4.53625 40.5768 4.53625C41.8081 4.53625 43.0612 4.70194 44.3362 5.03334V7.04984C43.015 6.69723 41.7619 6.52093 40.5768 6.52093C39.5634 6.52093 38.6917 6.69945 37.9623 7.05625C37.2327 7.41304 36.6749 7.92543 36.2886 8.59365C35.9023 9.26187 35.7092 10.0497 35.7092 10.9568C35.7092 11.8388 35.9048 12.6113 36.2963 13.2741C36.6878 13.9372 37.2482 14.4496 37.9779 14.8115C38.7073 15.1735 39.5686 15.3545 40.5613 15.3545C41.2509 15.3545 41.9302 15.3017 42.5993 15.1964C43.2684 15.0912 43.8711 14.9545 44.4074 14.7864V16.8029C43.8919 16.971 43.2827 17.1025 42.5803 17.1972C41.8776 17.2918 41.1632 17.3392 40.437 17.3392Z" fill="#171717"/>
<path d="M50.3772 17.3392C49.2802 17.3392 48.4182 16.9609 47.7905 16.2047C47.1632 15.4482 46.8492 14.4979 46.8492 13.3538C46.8492 12.1606 47.2358 10.999 48.0089 9.86895C48.782 8.73865 49.8703 7.85023 51.2735 7.20371L52.3302 8.9369C51.259 9.47394 50.4735 10.1283 49.974 10.8996C49.4746 11.6712 49.2249 12.476 49.2249 13.3146C49.2249 13.876 49.3447 14.3359 49.5838 14.6937C49.8231 15.0517 50.1702 15.2305 50.6254 15.2305C51.6085 15.2305 52.5607 14.5714 53.482 13.2532C54.4033 11.935 55.149 10.3535 55.7191 8.5081C56.2889 6.66297 56.574 5.05505 56.574 3.68459C56.574 3.25259 56.5142 2.91503 56.3944 2.67215C56.2748 2.42928 56.0901 2.30796 55.8404 2.30796C55.5899 2.30796 55.394 2.37972 55.253 2.52347C55.1119 2.66722 55.0415 2.88347 55.0415 3.17221C55.0415 3.73835 55.1512 4.34295 55.3708 4.98602C55.5901 5.62909 55.8952 6.30396 56.2855 7.01065C56.676 7.71708 57.1752 8.53941 57.7835 9.47763C58.5221 10.6161 59.2984 11.8085 60.1123 13.0547C60.9261 14.3009 61.7341 15.6186 62.5364 17.0078H60.3311C59.8909 16.1717 59.4953 15.4763 59.144 14.922C58.7928 14.3677 58.3262 13.6751 57.744 12.8439C56.6646 11.2599 55.8107 9.96068 55.1821 8.94651C54.5537 7.93235 54.0274 6.92163 53.6035 5.91388C53.1796 4.90637 52.9677 3.9975 52.9677 3.18774C52.9677 2.18739 53.2367 1.42374 53.7747 0.896808C54.3124 0.369876 55.0139 0.106537 55.8791 0.106537C56.7866 0.106537 57.4763 0.415251 57.9478 1.03243C58.4193 1.64985 58.6549 2.52075 58.6549 3.64538C58.6549 5.36623 58.3047 7.30925 57.604 9.47468C56.9032 11.6399 55.9229 13.4919 54.6626 15.0308C53.4027 16.5696 51.974 17.3392 50.3772 17.3392ZM60.5245 17.0078C60.5045 13.9796 60.8407 11.1982 61.5325 8.66393C62.2246 6.12938 63.221 4.09539 64.5218 2.56169C65.8227 1.02799 67.3447 0.215033 69.0883 0.122814V2.15361C67.9185 2.25618 66.8228 2.95226 65.801 4.2416C64.7791 5.53095 63.9692 7.28804 63.3712 9.51265C62.7732 11.7375 62.4949 14.2358 62.5364 17.0078H60.5245Z" fill="#098C70"/>
<path d="M74.4794 17.3392C73.0646 17.3392 71.8417 17.0751 70.8104 16.5472C69.7792 16.019 68.9937 15.2793 68.4543 14.328C67.9146 13.3765 67.6448 12.2804 67.6448 11.0397C67.6448 10.2694 67.7362 9.43767 67.9193 8.54458L69.962 8.33967C69.8148 9.03649 69.7412 9.75575 69.7412 10.4975C69.7412 12.0805 70.1744 13.3013 71.0406 14.1598C71.9071 15.0184 73.0532 15.4477 74.4794 15.4477C75.4899 15.4477 76.368 15.2549 77.1137 14.8695C77.8591 14.4841 78.4314 13.9419 78.8306 13.2423C79.2298 12.543 79.4293 11.7234 79.4293 10.784C79.4293 9.90272 79.2703 9.13487 78.9516 8.47997C78.6332 7.82531 78.1783 7.31959 77.5867 6.96304C76.9954 6.6065 76.3099 6.42822 75.5306 6.42822C74.6382 6.42822 73.9474 6.64792 73.4583 7.08757C72.969 7.52721 72.7244 8.11998 72.7244 8.86562C72.7244 9.78757 73.0927 10.7011 73.8293 11.6066L71.9271 12.1392C71.0609 11.1161 70.6276 10.0045 70.6276 8.80447C70.6276 8.04649 70.8228 7.34277 71.213 6.69329C71.6033 6.04381 72.1754 5.52206 72.929 5.12779C73.6826 4.73351 74.5807 4.53625 75.6235 4.53625C76.9131 4.53625 78.0103 4.80575 78.9146 5.34477C79.8191 5.88378 80.5035 6.62277 80.9684 7.56172C81.433 8.50068 81.6654 9.58019 81.6654 10.8002C81.6654 12.0524 81.3693 13.174 80.7767 14.1653C80.1844 15.1565 79.3458 15.9335 78.2615 16.4956C77.1769 17.0581 75.9162 17.3392 74.4794 17.3392Z" fill="#098C70"/>
<path d="M95.7775 17.331C94.9688 17.331 94.2658 16.8783 93.6688 15.9731C93.0716 15.0677 92.5951 13.7646 92.2394 12.0632C91.8837 10.3621 91.6612 8.3271 91.5717 5.9585H93.3865C93.4356 7.70597 93.5769 9.30255 93.8103 10.7485C94.0438 12.1944 94.3364 13.3378 94.6882 14.1783C95.0399 15.0189 95.4163 15.4391 95.8175 15.4391C96.2139 15.4391 96.7156 14.9893 97.3227 14.0898C97.9298 13.1901 98.4604 12.1323 98.9141 10.9159C99.3679 9.69979 99.5946 8.65652 99.5946 7.78636C99.5946 7.36274 99.5324 7.03553 99.4074 6.80498C99.2827 6.57444 99.1009 6.45929 98.8625 6.45929C98.6079 6.45929 98.4036 6.5986 98.2497 6.87748C98.0956 7.15611 98.0185 7.52351 98.0185 7.97967C98.0185 9.02959 98.369 10.027 99.07 10.9716C99.771 11.9162 100.877 12.8836 102.387 13.8736L101.352 15.5749C99.6329 14.3408 98.3189 13.0956 97.4096 11.8396C96.5007 10.5835 96.046 9.2843 96.046 7.9417C96.046 6.8903 96.2952 6.05984 96.7936 5.45055C97.2918 4.84102 97.997 4.53625 98.9092 4.53625C99.7685 4.53625 100.427 4.82252 100.883 5.39457C101.339 5.96687 101.567 6.73594 101.567 7.70227C101.567 8.78745 101.265 10.1022 100.659 11.6462C100.054 13.1903 99.3005 14.5238 98.3984 15.6467C97.4963 16.7696 96.6227 17.331 95.7775 17.331ZM88.4207 17.3392C87.4555 17.3392 86.6418 16.8184 85.9796 15.7769C85.3176 14.7353 84.8022 13.2887 84.4334 11.4372C84.0646 9.58562 83.8193 7.39578 83.6978 4.86764H85.9495C85.9823 6.86934 86.1194 8.67748 86.361 10.2921C86.6026 11.9064 86.9074 13.1693 87.2751 14.0807C87.6429 14.992 88.0196 15.4477 88.4052 15.4477C88.8021 15.4477 89.1951 15.0164 89.5844 14.1542C89.9736 13.2916 90.3103 12.132 90.5944 10.6752C90.8782 9.21822 91.0684 7.64606 91.1649 5.9585H92.8171C92.7001 8.10617 92.4602 10.0322 92.0974 11.7365C91.7348 13.4408 91.2437 14.8007 90.6245 15.8161C90.0053 16.8315 89.2707 17.3392 88.4207 17.3392Z" fill="#098C70"/>
</svg>