<svg width="40" height="40" viewBox="0 0 40 40" fill="none" xmlns="http://www.w3.org/2000/svg">
<path d="M20 27.3849C20.158 27.3849 20.3113 27.3608 20.46 27.3128C20.6083 27.2647 20.7445 27.182 20.8687 27.0645C21.5437 26.4511 22.1826 25.8517 22.7854 25.2661C23.3879 24.6808 23.9183 24.1093 24.3766 23.5515C24.835 22.9938 25.2019 22.4463 25.4775 21.909C25.753 21.3715 25.8908 20.8549 25.8908 20.359C25.8908 19.436 25.5756 18.6679 24.9454 18.0549C24.3151 17.4415 23.5555 17.1349 22.6666 17.1349C22.1152 17.1349 21.6158 17.2486 21.1683 17.4761C20.7205 17.7036 20.3311 17.9895 20 18.3336C19.7116 17.9895 19.335 17.7036 18.87 17.4761C18.4052 17.2486 17.9144 17.1349 17.3975 17.1349C16.5086 17.1349 15.749 17.4415 15.1187 18.0549C14.4881 18.6679 14.1729 19.436 14.1729 20.359C14.1729 20.8549 14.3054 21.3715 14.5704 21.909C14.8354 22.4463 15.197 22.9938 15.6554 23.5515C16.1137 24.1093 16.6441 24.6808 17.2466 25.2661C17.8494 25.8517 18.4776 26.4511 19.1312 27.0645C19.2554 27.182 19.3916 27.2647 19.54 27.3128C19.6886 27.3608 19.8419 27.3849 20 27.3849ZM11.0258 32.904C10.28 32.904 9.64468 32.6418 9.11995 32.1174C8.59551 31.5927 8.33329 30.9574 8.33329 30.2115V17.6636L5.76912 19.6603C5.57245 19.81 5.36954 19.8678 5.16037 19.8336C4.95093 19.7995 4.77134 19.684 4.62162 19.4874C4.47218 19.2907 4.41079 19.0876 4.43745 18.8782C4.46412 18.669 4.57259 18.4896 4.76287 18.3399L18.3429 7.90737C18.5843 7.72793 18.8466 7.5932 19.13 7.5032C19.413 7.41348 19.703 7.36862 20 7.36862C20.2969 7.36862 20.5816 7.41348 20.8541 7.5032C21.1266 7.5932 21.3836 7.72793 21.625 7.90737L35.2466 18.3399C35.4369 18.4896 35.5438 18.669 35.5675 18.8782C35.5908 19.0876 35.5277 19.2907 35.3783 19.4874C35.2286 19.6776 35.049 19.7899 34.8395 19.824C34.6304 19.8582 34.4306 19.8004 34.2404 19.6507L31.6666 17.6636V30.2115C31.6666 30.9574 31.4044 31.5927 30.88 32.1174C30.3552 32.6418 29.72 32.904 28.9741 32.904H11.0258ZM11.0258 31.2374H28.9741C29.2733 31.2374 29.5191 31.1413 29.7116 30.949C29.9038 30.7565 30 30.5107 30 30.2115V16.404L20.6091 9.25987C20.438 9.11015 20.235 9.03529 20 9.03529C19.765 9.03529 19.5619 9.11015 19.3908 9.25987L9.99995 16.404V30.2115C9.99995 30.5107 10.0961 30.7565 10.2883 30.949C10.4808 31.1413 10.7266 31.2374 11.0258 31.2374ZM11.0258 31.2374H9.99995H30H11.0258Z" fill="#098C70"/>
</svg>
