<svg width="40" height="40" viewBox="0 0 40 40" fill="none" xmlns="http://www.w3.org/2000/svg">
<path d="M26.3622 32.8717L23.2051 29.6825C23.0492 29.5203 22.9713 29.3275 22.9713 29.1042C22.9713 28.8808 23.0524 28.6881 23.2147 28.5258C23.3772 28.3633 23.5719 28.2821 23.7988 28.2821C24.0258 28.2821 24.2242 28.3633 24.3942 28.5258L27.3463 31.4775L33.8301 24.9842C33.9926 24.8217 34.1855 24.7404 34.4088 24.7404C34.6322 24.7404 34.8249 24.8217 34.9872 24.9842C35.1497 25.1464 35.2309 25.3392 35.2309 25.5625C35.2309 25.7858 35.1497 25.9786 34.9872 26.1408L28.2884 32.8717C28.0179 33.1411 27.6965 33.2758 27.3242 33.2758C26.952 33.2758 26.6313 33.1411 26.3622 32.8717ZM21.923 35C19.4038 35 17.273 34.1068 15.5305 32.3204C13.788 30.534 12.9167 28.3717 12.9167 25.8333V24.9713C10.8056 24.7746 9.02786 23.8863 7.58341 22.3063C6.13897 20.726 5.41675 18.8461 5.41675 16.6667V8.84626C5.41675 8.46487 5.54578 8.14515 5.80383 7.88709C6.06189 7.62904 6.38161 7.50001 6.763 7.50001H10.4167V6.66668C10.4167 6.43057 10.4967 6.23265 10.6567 6.07293C10.8167 5.9132 11.0149 5.83334 11.2513 5.83334C11.4877 5.83334 11.6855 5.9132 11.8447 6.07293C12.0038 6.23265 12.0834 6.43057 12.0834 6.66668V10C12.0834 10.2361 12.0034 10.434 11.8434 10.5938C11.6834 10.7535 11.4852 10.8333 11.2488 10.8333C11.0124 10.8333 10.8147 10.7535 10.6555 10.5938C10.4963 10.434 10.4167 10.2361 10.4167 10V9.16668H7.08341V16.6667C7.08341 18.5 7.73619 20.0695 9.04175 21.375C10.3473 22.6806 11.9167 23.3333 13.7501 23.3333C15.5834 23.3333 17.1529 22.6806 18.4584 21.375C19.764 20.0695 20.4167 18.5 20.4167 16.6667V9.16668H17.0834V10C17.0834 10.2361 17.0034 10.434 16.8434 10.5938C16.6834 10.7535 16.4852 10.8333 16.2488 10.8333C16.0124 10.8333 15.8147 10.7535 15.6555 10.5938C15.4963 10.434 15.4167 10.2361 15.4167 10V6.66668C15.4167 6.43057 15.4967 6.23265 15.6567 6.07293C15.8167 5.9132 16.0149 5.83334 16.2513 5.83334C16.4877 5.83334 16.6855 5.9132 16.8447 6.07293C17.0038 6.23265 17.0834 6.43057 17.0834 6.66668V7.50001H20.7372C21.1186 7.50001 21.4383 7.62904 21.6963 7.88709C21.9544 8.14515 22.0834 8.46487 22.0834 8.84626V16.6667C22.0834 18.8461 21.3612 20.726 19.9167 22.3063C18.4723 23.8863 16.6945 24.7746 14.5834 24.9713V25.8333C14.5834 27.8975 15.2955 29.6635 16.7197 31.1313C18.1438 32.5993 19.8783 33.3333 21.923 33.3333C22.1591 33.3333 22.357 33.4133 22.5167 33.5733C22.6765 33.7333 22.7563 33.9315 22.7563 34.1679C22.7563 34.4043 22.6765 34.6021 22.5167 34.7613C22.357 34.9204 22.1591 35 21.923 35Z" fill="#098C70"/>
</svg>
