<svg width="40" height="40" viewBox="0 0 40 40" fill="none" xmlns="http://www.w3.org/2000/svg">
<path d="M19.1667 25.3333V29.5C19.1667 29.7361 19.2467 29.934 19.4067 30.0938C19.5667 30.2535 19.7649 30.3333 20.0013 30.3333C20.2377 30.3333 20.4355 30.2535 20.5946 30.0938C20.7538 29.934 20.8334 29.7361 20.8334 29.5V25.3333H25C25.2362 25.3333 25.4341 25.2533 25.5938 25.0933C25.7535 24.9333 25.8334 24.7351 25.8334 24.4988C25.8334 24.2624 25.7535 24.0646 25.5938 23.9054C25.4341 23.7463 25.2362 23.6667 25 23.6667H20.8334V19.5C20.8334 19.2639 20.7534 19.066 20.5934 18.9062C20.4334 18.7465 20.2352 18.6667 19.9988 18.6667C19.7624 18.6667 19.5646 18.7465 19.4055 18.9062C19.2463 19.066 19.1667 19.2639 19.1667 19.5V23.6667H15C14.7639 23.6667 14.566 23.7467 14.4063 23.9067C14.2466 24.0667 14.1667 24.2649 14.1667 24.5013C14.1667 24.7376 14.2466 24.9354 14.4063 25.0946C14.566 25.2537 14.7639 25.3333 15 25.3333H19.1667ZM11.0259 34.5C10.2853 34.5 9.65143 34.2364 9.12421 33.7092C8.59698 33.1819 8.33337 32.5481 8.33337 31.8075V17.1925C8.33337 16.4519 8.59698 15.8181 9.12421 15.2908C9.65143 14.7636 10.2853 14.5 11.0259 14.5H13.3334V11.1667C13.3334 9.30972 13.9803 7.73445 15.2742 6.44083C16.5678 5.14695 18.1431 4.5 20 4.5C21.857 4.5 23.4323 5.14695 24.7259 6.44083C26.0198 7.73445 26.6667 9.30972 26.6667 11.1667V14.5H28.9742C29.7148 14.5 30.3487 14.7636 30.8759 15.2908C31.4031 15.8181 31.6667 16.4519 31.6667 17.1925V31.8075C31.6667 32.5481 31.4031 33.1819 30.8759 33.7092C30.3487 34.2364 29.7148 34.5 28.9742 34.5H11.0259ZM11.0259 32.8333H28.9742C29.2734 32.8333 29.5192 32.7372 29.7117 32.545C29.9039 32.3525 30 32.1067 30 31.8075V17.1925C30 16.8933 29.9039 16.6475 29.7117 16.455C29.5192 16.2628 29.2734 16.1667 28.9742 16.1667H11.0259C10.7267 16.1667 10.4809 16.2628 10.2884 16.455C10.0962 16.6475 10 16.8933 10 17.1925V31.8075C10 32.1067 10.0962 32.3525 10.2884 32.545C10.4809 32.7372 10.7267 32.8333 11.0259 32.8333ZM15 14.5H25V11.1667C25 9.77778 24.5139 8.59722 23.5417 7.625C22.5695 6.65278 21.3889 6.16667 20 6.16667C18.6112 6.16667 17.4306 6.65278 16.4584 7.625C15.4862 8.59722 15 9.77778 15 11.1667V14.5Z" fill="#098C70"/>
</svg>
