<svg width="40" height="40" viewBox="0 0 40 40" fill="none" xmlns="http://www.w3.org/2000/svg">
<path d="M24.6934 31.1667C21.4326 31.1667 18.6706 30.0352 16.4076 27.7721C14.1445 25.509 13.013 22.7471 13.013 19.4863C13.013 16.2496 14.1445 13.4983 16.4076 11.2325C18.6706 8.9664 21.4326 7.83334 24.6934 7.83334C27.9298 7.83334 30.681 8.9664 32.9471 11.2325C35.2133 13.4983 36.3463 16.2496 36.3463 19.4863C36.3463 22.7471 35.2133 25.509 32.9471 27.7721C30.681 30.0352 27.9298 31.1667 24.6934 31.1667ZM24.6796 29.5C27.4574 29.5 29.8185 28.5278 31.763 26.5833C33.7074 24.6389 34.6796 22.2778 34.6796 19.5C34.6796 16.7222 33.7074 14.3611 31.763 12.4167C29.8185 10.4722 27.4574 9.50001 24.6796 9.50001C21.9019 9.50001 19.5408 10.4722 17.5963 12.4167C15.6519 14.3611 14.6796 16.7222 14.6796 19.5C14.6796 22.2778 15.6519 24.6389 17.5963 26.5833C19.5408 28.5278 21.9019 29.5 24.6796 29.5ZM25.513 19.1858V14.1796C25.513 13.9435 25.433 13.7456 25.273 13.5858C25.113 13.4261 24.9148 13.3463 24.6784 13.3463C24.442 13.3463 24.2442 13.4261 24.0851 13.5858C23.9259 13.7456 23.8463 13.9435 23.8463 14.1796V19.3175C23.8463 19.4875 23.8788 19.6524 23.9438 19.8121C24.0091 19.9715 24.1139 20.124 24.2584 20.2696L28.2021 24.2438C28.3644 24.4274 28.5571 24.5192 28.7805 24.5192C29.0038 24.5192 29.2073 24.4274 29.3909 24.2438C29.5748 24.0599 29.6667 23.8617 29.6667 23.6492C29.6667 23.4364 29.5748 23.2382 29.3909 23.0546L25.513 19.1858ZM6.15381 13.6667C5.9177 13.6667 5.71978 13.5867 5.56006 13.4267C5.40034 13.2667 5.32048 13.0685 5.32048 12.8321C5.32048 12.5957 5.40034 12.3979 5.56006 12.2388C5.71978 12.0796 5.9177 12 6.15381 12H10.513C10.7491 12 10.947 12.08 11.1067 12.24C11.2664 12.4 11.3463 12.5982 11.3463 12.8346C11.3463 13.071 11.2664 13.2688 11.1067 13.4279C10.947 13.5871 10.7491 13.6667 10.513 13.6667H6.15381ZM4.48714 20.3333C4.25103 20.3333 4.05311 20.2533 3.89339 20.0933C3.73367 19.9333 3.65381 19.7351 3.65381 19.4988C3.65381 19.2624 3.73367 19.0646 3.89339 18.9054C4.05311 18.7463 4.25103 18.6667 4.48714 18.6667H10.513C10.7491 18.6667 10.947 18.7467 11.1067 18.9067C11.2664 19.0667 11.3463 19.2649 11.3463 19.5013C11.3463 19.7376 11.2664 19.9354 11.1067 20.0946C10.947 20.2538 10.7491 20.3333 10.513 20.3333H4.48714ZM6.15381 27C5.9177 27 5.71978 26.92 5.56006 26.76C5.40034 26.6 5.32048 26.4018 5.32048 26.1654C5.32048 25.929 5.40034 25.7313 5.56006 25.5721C5.71978 25.4129 5.9177 25.3333 6.15381 25.3333H10.513C10.7491 25.3333 10.947 25.4133 11.1067 25.5733C11.2664 25.7333 11.3463 25.9315 11.3463 26.1679C11.3463 26.4043 11.2664 26.6021 11.1067 26.7613C10.947 26.9204 10.7491 27 10.513 27H6.15381Z" fill="#098C70"/>
</svg>

